<svg width="32" height="33" viewBox="0 0 32 33" fill="none" xmlns="http://www.w3.org/2000/svg">
<path d="M29.7143 0.125488H2.27857C1.02143 0.125488 0 1.1612 0 2.43263V29.8183C0 31.0898 1.02143 32.1255 2.27857 32.1255H29.7143C30.9714 32.1255 32 31.0898 32 29.8183V2.43263C32 1.1612 30.9714 0.125488 29.7143 0.125488ZM9.67143 27.5541H4.92857V12.2826H9.67857V27.5541H9.67143ZM7.3 10.1969C5.77857 10.1969 4.55 8.9612 4.55 7.44692C4.55 5.93263 5.77857 4.69692 7.3 4.69692C8.81429 4.69692 10.05 5.93263 10.05 7.44692C10.05 8.96835 8.82143 10.1969 7.3 10.1969ZM27.45 27.5541H22.7071V20.1255C22.7071 18.3541 22.6714 16.0755 20.2429 16.0755C17.7714 16.0755 17.3929 18.0041 17.3929 19.9969V27.5541H12.65V12.2826H17.2V14.3683H17.2643C17.9 13.1683 19.45 11.9041 21.7571 11.9041C26.5571 11.9041 27.45 15.0683 27.45 19.1826V27.5541Z" fill="url(#paint0_linear_269_21)"/>
<defs>
<linearGradient id="paint0_linear_269_21" x1="16" y1="0.125488" x2="16" y2="32.1255" gradientUnits="userSpaceOnUse">
<stop stop-color="white"/>
<stop offset="1" stop-color="#BF0D0D"/>
</linearGradient>
</defs>
</svg>
