<svg width="33" height="34" viewBox="0 0 33 34" fill="none" xmlns="http://www.w3.org/2000/svg">
<path d="M5.125 33.0144C3.77083 33.0144 2.61979 32.5404 1.67188 31.5925C0.723958 30.6446 0.25 29.4936 0.25 28.1394C0.25 27.0832 0.554688 26.142 1.16406 25.316C1.77344 24.4899 2.55208 23.9009 3.5 23.5488V9.98003C2.55208 9.62795 1.77344 9.03888 1.16406 8.21284C0.554688 7.3868 0.25 6.44565 0.25 5.3894C0.25 4.03524 0.723958 2.8842 1.67188 1.93628C2.61979 0.988363 3.77083 0.514404 5.125 0.514404C6.18125 0.514404 7.1224 0.819092 7.94844 1.42847C8.77448 2.03784 9.36354 2.81649 9.71563 3.7644H23.2844C23.6094 2.81649 24.1849 2.03784 25.0109 1.42847C25.837 0.819092 26.7917 0.514404 27.875 0.514404C29.2292 0.514404 30.3802 0.988363 31.3281 1.93628C32.276 2.8842 32.75 4.03524 32.75 5.3894C32.75 6.47274 32.4453 7.42743 31.8359 8.25347C31.2266 9.07951 30.4479 9.65503 29.5 9.98003V23.5488C30.4479 23.9009 31.2266 24.4899 31.8359 25.316C32.4453 26.142 32.75 27.0832 32.75 28.1394C32.75 29.4936 32.276 30.6446 31.3281 31.5925C30.3802 32.5404 29.2292 33.0144 27.875 33.0144C26.8187 33.0144 25.8776 32.7097 25.0516 32.1003C24.2255 31.491 23.6365 30.7123 23.2844 29.7644H9.71563C9.36354 30.7123 8.77448 31.491 7.94844 32.1003C7.1224 32.7097 6.18125 33.0144 5.125 33.0144ZM5.125 7.0144C5.58542 7.0144 5.97135 6.85868 6.28281 6.54722C6.59427 6.23576 6.75 5.84982 6.75 5.3894C6.75 4.92899 6.59427 4.54305 6.28281 4.23159C5.97135 3.92013 5.58542 3.7644 5.125 3.7644C4.66458 3.7644 4.27865 3.92013 3.96719 4.23159C3.65573 4.54305 3.5 4.92899 3.5 5.3894C3.5 5.84982 3.65573 6.23576 3.96719 6.54722C4.27865 6.85868 4.66458 7.0144 5.125 7.0144ZM27.875 7.0144C28.3354 7.0144 28.7214 6.85868 29.0328 6.54722C29.3443 6.23576 29.5 5.84982 29.5 5.3894C29.5 4.92899 29.3443 4.54305 29.0328 4.23159C28.7214 3.92013 28.3354 3.7644 27.875 3.7644C27.4146 3.7644 27.0286 3.92013 26.7172 4.23159C26.4057 4.54305 26.25 4.92899 26.25 5.3894C26.25 5.84982 26.4057 6.23576 26.7172 6.54722C27.0286 6.85868 27.4146 7.0144 27.875 7.0144ZM9.71563 26.5144H23.2844C23.5281 25.8102 23.9073 25.2009 24.4219 24.6863C24.9365 24.1717 25.5458 23.7925 26.25 23.5488V9.98003C25.5458 9.73628 24.9365 9.35711 24.4219 8.84253C23.9073 8.32795 23.5281 7.71857 23.2844 7.0144H9.71563C9.47188 7.71857 9.09271 8.32795 8.57812 8.84253C8.06354 9.35711 7.45417 9.73628 6.75 9.98003V23.5488C7.45417 23.7925 8.06354 24.1717 8.57812 24.6863C9.09271 25.2009 9.47188 25.8102 9.71563 26.5144ZM27.875 29.7644C28.3354 29.7644 28.7214 29.6087 29.0328 29.2972C29.3443 28.9858 29.5 28.5998 29.5 28.1394C29.5 27.679 29.3443 27.2931 29.0328 26.9816C28.7214 26.6701 28.3354 26.5144 27.875 26.5144C27.4146 26.5144 27.0286 26.6701 26.7172 26.9816C26.4057 27.2931 26.25 27.679 26.25 28.1394C26.25 28.5998 26.4057 28.9858 26.7172 29.2972C27.0286 29.6087 27.4146 29.7644 27.875 29.7644ZM5.125 29.7644C5.58542 29.7644 5.97135 29.6087 6.28281 29.2972C6.59427 28.9858 6.75 28.5998 6.75 28.1394C6.75 27.679 6.59427 27.2931 6.28281 26.9816C5.97135 26.6701 5.58542 26.5144 5.125 26.5144C4.66458 26.5144 4.27865 26.6701 3.96719 26.9816C3.65573 27.2931 3.5 27.679 3.5 28.1394C3.5 28.5998 3.65573 28.9858 3.96719 29.2972C4.27865 29.6087 4.66458 29.7644 5.125 29.7644Z" fill="white"/>
</svg>
