<svg width="31" height="42" viewBox="0 0 31 42" fill="none" xmlns="http://www.w3.org/2000/svg">
<path d="M13.5706 40.3039C2.12459 23.5531 0 21.834 0 15.6778C0 7.24513 6.77167 0.40918 15.125 0.40918C23.4783 0.40918 30.25 7.24513 30.25 15.6778C30.25 21.834 28.1254 23.5531 16.6794 40.3039C15.9283 41.3993 14.3216 41.3992 13.5706 40.3039ZM15.125 22.0397C18.6056 22.0397 21.4271 19.1914 21.4271 15.6778C21.4271 12.1642 18.6056 9.31586 15.125 9.31586C11.6444 9.31586 8.82292 12.1642 8.82292 15.6778C8.82292 19.1914 11.6444 22.0397 15.125 22.0397Z" fill="url(#paint0_linear_61_91)"/>
<defs>
<linearGradient id="paint0_linear_61_91" x1="15.125" y1="0.40918" x2="15.125" y2="41.1254" gradientUnits="userSpaceOnUse">
<stop stop-color="white"/>
<stop offset="1" stop-color="#BF0D0D"/>
<stop offset="1" stop-color="white"/>
</linearGradient>
</defs>
</svg>
