<svg width="34" height="35" viewBox="0 0 34 35" fill="none" xmlns="http://www.w3.org/2000/svg">
<path d="M11.3722 27.8339C11.3722 27.9724 11.2145 28.0832 11.0157 28.0832C10.7895 28.104 10.6319 27.9932 10.6319 27.8339C10.6319 27.6954 10.7895 27.5846 10.9883 27.5846C11.194 27.5638 11.3722 27.6746 11.3722 27.8339ZM9.24032 27.5223C9.19234 27.6608 9.32944 27.8201 9.53508 27.8616C9.71331 27.9309 9.91895 27.8616 9.96008 27.7231C10.0012 27.5846 9.87097 27.4253 9.66532 27.363C9.4871 27.3145 9.28831 27.3838 9.24032 27.5223ZM12.2702 27.4045C12.0714 27.453 11.9343 27.5846 11.9548 27.7439C11.9754 27.8824 12.1536 27.9724 12.3593 27.9239C12.5581 27.8755 12.6952 27.7439 12.6746 27.6054C12.654 27.4738 12.469 27.3838 12.2702 27.4045ZM16.7806 0.867432C7.27298 0.867432 0 8.1596 0 17.7648C0 25.4447 4.78468 32.0167 11.619 34.3297C12.4964 34.489 12.8048 33.9419 12.8048 33.4917C12.8048 33.0624 12.7843 30.694 12.7843 29.2397C12.7843 29.2397 7.98589 30.2785 6.97823 27.176C6.97823 27.176 6.19677 25.1608 5.07258 24.6414C5.07258 24.6414 3.50282 23.5542 5.18226 23.5749C5.18226 23.5749 6.88911 23.7135 7.82823 25.3616C9.32944 28.0347 11.8452 27.266 12.8254 26.809C12.9831 25.701 13.4286 24.9323 13.9222 24.4752C10.0903 24.0459 6.22419 23.4849 6.22419 16.8229C6.22419 14.9185 6.74516 13.9629 7.84194 12.744C7.66371 12.2939 7.08105 10.438 8.02016 8.04187C9.45282 7.59174 12.75 9.91166 12.75 9.91166C14.121 9.52385 15.5948 9.32302 17.0548 9.32302C18.5149 9.32302 19.9887 9.52385 21.3597 9.91166C21.3597 9.91166 24.6569 7.58481 26.0895 8.04187C27.0286 10.4449 26.446 12.2939 26.2677 12.744C27.3645 13.9698 28.0363 14.9255 28.0363 16.8229C28.0363 23.5057 23.9988 24.0389 20.1669 24.4752C20.7976 25.0223 21.3323 26.0611 21.3323 27.6885C21.3323 30.0222 21.3117 32.91 21.3117 33.4779C21.3117 33.928 21.627 34.4751 22.4976 34.3158C29.3524 32.0167 34 25.4447 34 17.7648C34 8.1596 26.2883 0.867432 16.7806 0.867432ZM6.6629 24.7522C6.57379 24.8215 6.59436 24.9807 6.71089 25.1123C6.82056 25.2231 6.97823 25.2716 7.06734 25.1816C7.15645 25.1123 7.13589 24.953 7.01936 24.8215C6.90968 24.7107 6.75202 24.6622 6.6629 24.7522ZM5.92258 24.1913C5.8746 24.2813 5.94314 24.3921 6.08024 24.4614C6.18992 24.5306 6.32702 24.5098 6.375 24.4129C6.42298 24.3229 6.35444 24.2121 6.21734 24.1428C6.08024 24.1013 5.97056 24.122 5.92258 24.1913ZM8.14355 26.6566C8.03387 26.7467 8.075 26.9544 8.23266 27.086C8.39032 27.2453 8.58911 27.266 8.67823 27.1552C8.76734 27.0652 8.72621 26.8575 8.58911 26.7259C8.43831 26.5666 8.23266 26.5458 8.14355 26.6566ZM7.3621 25.6386C7.25242 25.7079 7.25242 25.8879 7.3621 26.0472C7.47177 26.2065 7.65686 26.2757 7.74597 26.2065C7.85565 26.1165 7.85565 25.9364 7.74597 25.7771C7.65 25.6179 7.47177 25.5486 7.3621 25.6386Z" fill="url(#paint0_linear_61_94)"/>
<defs>
<linearGradient id="paint0_linear_61_94" x1="17" y1="0.867432" x2="17" y2="34.3579" gradientUnits="userSpaceOnUse">
<stop stop-color="white"/>
<stop offset="1" stop-color="#BF0D0D"/>
</linearGradient>
</defs>
</svg>
