<svg width="34" height="26" viewBox="0 0 34 26" fill="none" xmlns="http://www.w3.org/2000/svg">
<path d="M33.3559 8.62574C33.6148 8.41793 34 8.61233 34 8.94081V22.6498C34 24.4263 32.5723 25.8676 30.8125 25.8676H3.1875C1.42773 25.8676 0 24.4263 0 22.6498V8.94752C0 8.61233 0.378516 8.42463 0.644141 8.63244C2.13164 9.79888 4.10391 11.2804 10.8773 16.2478C12.2785 17.2802 14.6426 19.4522 17 19.4388C19.3707 19.4589 21.7812 17.24 23.1293 16.2478C29.9027 11.2804 31.8684 9.79218 33.3559 8.62574ZM17 17.2869C18.5406 17.3137 20.7586 15.3294 21.8742 14.5116C30.6863 8.05593 31.357 7.49282 33.3891 5.88394C33.7742 5.58227 34 5.11302 34 4.61695V3.34325C34 1.56678 32.5723 0.125488 30.8125 0.125488H3.1875C1.42773 0.125488 0 1.56678 0 3.34325V4.61695C0 5.11302 0.225781 5.57557 0.610937 5.88394C2.64297 7.48612 3.31367 8.05593 12.1258 14.5116C13.2414 15.3294 15.4594 17.3137 17 17.2869Z" fill="url(#paint0_linear_61_88)"/>
<defs>
<linearGradient id="paint0_linear_61_88" x1="17" y1="0.125488" x2="17" y2="25.8676" gradientUnits="userSpaceOnUse">
<stop stop-color="white"/>
<stop offset="1" stop-color="#BF0D0D"/>
</linearGradient>
</defs>
</svg>
